# xmcd CD database file
#
# Track frame offsets:
#	182
#	12127
#	31090
#	48607
#	66720
#	80307
#	95057
#	112805
#	126405
#	142907
#	158110
#	171427
#	185330
#	197687
#	213360
#	225002
#	238255
#
# Disc length: 3358 seconds
#
# Revision: 15
# Processed by: cddbd v1.5.2PL0 Copyright (c) Steve Scherf et al.
# Submitted via: CDex 1.70beta2
#
DISCID=e30d1c11
DTITLE=Schlager - Sampler - Echt kultig - Kult 1 - Folge 2
DYEAR=1997
DGENRE=Schlager
TTITLE0=Drafi Deutscher - Marmor, Stein und Eisen bricht
TTITLE1=Wolfgang Petry - Sommer in der Stadt
TTITLE2=Vicky Leandros - Theo, wir fahr´n nach Lodz
TTITLE3=Jürgen Marcus - Ein Festival der Liebe
TTITLE4=Marianne Rosenberg - Er gehört zu mir
TTITLE5=Howard Carpendale - Tür an Tür mit Alice
TTITLE6=Bernhard Brink - Frei und Abgebrannt
TTITLE7=Wencke Myhre - Eine Mark für Charly
TTITLE8=Bernd Clüver and Marion Maerz - Schau´ mal herein
TTITLE9=Daliah Lavi - Oh, wann kommst du
TTITLE10=Katja Ebstein - Was hat sie, das ich nicht habe
TTITLE11=Heintje - Du sollst nicht weinen
TTITLE12=Cornelia Froboess - Zwei kleine Italiener
TTITLE13=Bernd Clüver - Mexican Girl
TTITLE14=Ricky Shayne - Ich mache keine Komplimente
TTITLE15=Cindy and Bert - Aber am Abend, da spielt der Zigeuner
TTITLE16=Ireen Sheer - Goodbye Mama
EXTD=Die Besten Deutschen Schlager Der 60er Und 70er YEAR: 1997
EXTT0=
EXTT1=
EXTT2=
EXTT3=
EXTT4=
EXTT5=
EXTT6=
EXTT7=
EXTT8=
EXTT9=
EXTT10=
EXTT11=
EXTT12=
EXTT13=
EXTT14=
EXTT15=
EXTT16=
PLAYORDER=
